<?xml version="1.0" encoding="UTF-8"?><svg id="a" xmlns="http://www.w3.org/2000/svg" width="100" height="100" viewBox="0 0 100 100"><defs><style>.b{fill:#fff;}.c{fill:#3b404c;}.d{fill:#596172;}</style></defs><circle class="c" cx="50" cy="50" r="48.5"/><path class="d" d="m50,3c25.92,0,47,21.08,47,47s-21.08,47-47,47S3,75.92,3,50,24.08,3,50,3m0-3C22.39,0,0,22.39,0,50s22.39,50,50,50,50-22.39,50-50S77.61,0,50,0h0Z"/><path class="b" d="m64.04,41.6c0,1.64-.27,3.04-.81,4.2s-1.23,2.15-2.07,2.97-1.74,1.59-2.7,2.31c-.96.72-1.87,1.46-2.73,2.22s-1.56,1.65-2.1,2.67c-.54,1.02-.81,2.25-.81,3.69h-9.18c0-2.04.27-3.77.81-5.19.54-1.42,1.24-2.62,2.1-3.6.86-.98,1.77-1.83,2.73-2.55s1.86-1.4,2.7-2.04,1.53-1.33,2.07-2.07c.54-.74.81-1.63.81-2.67,0-1.28-.41-2.33-1.23-3.15-.82-.82-1.99-1.23-3.51-1.23-1.72,0-3.05.47-3.99,1.41s-1.53,2.39-1.77,4.35h-9.18c.56-4.04,2.14-7.23,4.74-9.57s6.04-3.51,10.32-3.51c3,0,5.53.54,7.59,1.62,2.06,1.08,3.61,2.52,4.65,4.32,1.04,1.8,1.56,3.74,1.56,5.82Zm-20.64,30v-8.16h9.66v8.16h-9.66Z"/></svg>